<svg width="467" height="144" viewBox="0 0 467 144" fill="none" xmlns="http://www.w3.org/2000/svg">
<path d="M466.944 0H0V143.38H466.944V0Z" fill="black"/>
<path fill-rule="evenodd" clip-rule="evenodd" d="M107.37 52.6991V35.3291C107.388 34.7213 107.904 34.2423 108.494 34.2608C114.425 34.6107 119.803 35.1449 124.408 35.7896C124.832 35.8449 125.2 36.158 125.329 36.5633C125.329 36.5633 125.348 36.6738 125.366 36.7106V36.7474C125.403 36.858 125.403 37.0053 125.44 37.1527C126.011 41.0024 126.6 47.081 126.913 52.5885C126.913 52.5885 126.987 53.8227 125.753 53.8227H108.475C107.849 53.8227 107.352 53.3253 107.352 52.6991" fill="white"/>
<path fill-rule="evenodd" clip-rule="evenodd" d="M71.6174 108.051V89.5576V90.6812C71.6174 90.0734 71.1201 89.5576 70.4938 89.5576H53.216C51.9819 89.5576 52.0555 90.7917 52.0555 90.7917C52.3687 96.2993 52.9581 102.378 53.5291 106.228C53.5475 106.393 53.566 106.522 53.5844 106.651V106.688C53.5844 106.688 53.6028 106.78 53.6212 106.817C53.7686 107.241 54.1186 107.535 54.5238 107.591C59.1472 108.254 64.5442 108.77 70.4754 109.138C71.0833 109.138 71.5806 108.659 71.599 108.051" fill="white"/>
<path fill-rule="evenodd" clip-rule="evenodd" d="M91.7305 52.5703C91.7305 52.5703 91.7305 53.8044 92.9646 53.8044H101.677C101.677 53.8044 102.911 53.8045 102.911 52.5703V35.182C102.911 35.182 102.911 33.9478 101.677 33.8926C99.3195 33.8005 95.5802 33.7084 92.9646 33.6899C92.9646 33.6899 91.7305 33.6899 91.7305 34.9057V52.5519V52.5703Z" fill="white"/>
<path fill-rule="evenodd" clip-rule="evenodd" d="M89.4847 108.456V89.9441V90.6993C89.4847 90.0914 88.9874 89.5757 88.3611 89.5757H89.0979H77.2908C77.2908 89.5757 76.0566 89.5757 76.0566 90.8098V108.198C76.0566 108.198 76.0566 109.432 77.2908 109.488C80.33 109.617 84.8245 109.709 88.2322 109.709C88.2322 109.709 89.4663 109.709 89.4663 108.474" fill="white"/>
<path fill-rule="evenodd" clip-rule="evenodd" d="M76.0742 52.5702C76.0742 52.5702 76.0742 53.8043 77.3084 53.8043H86.021C86.021 53.8043 87.2551 53.8043 87.2551 52.5702V34.9239C87.2551 34.9239 87.2551 33.6898 86.021 33.7082C83.4053 33.7082 79.6661 33.8187 77.3084 33.9108C77.3084 33.9108 76.0742 33.9661 76.0742 35.2002V52.5886V52.5702Z" fill="white"/>
<path fill-rule="evenodd" clip-rule="evenodd" d="M66.8643 85.0993H70.3641C70.3641 85.0993 71.5982 85.0993 71.5982 83.8652V75.1526C71.5982 75.1526 71.5982 73.9185 70.3641 73.9185H52.7179C52.7179 73.9185 51.4837 73.9185 51.5022 75.1526C51.5022 77.7866 51.6127 81.5074 51.7048 83.8652C51.7048 83.8652 51.76 85.0993 52.9942 85.0993H66.8643Z" fill="white"/>
<path fill-rule="evenodd" clip-rule="evenodd" d="M51.502 68.227C51.502 68.227 51.5019 69.4611 52.7177 69.4611H70.3639C70.3639 69.4611 71.598 69.4611 71.598 68.227V59.5144C71.598 59.5144 71.598 58.2803 70.3639 58.2803H52.9755C52.9755 58.2803 51.7414 58.2803 51.7046 59.5144C51.5941 61.8722 51.5204 65.6114 51.502 68.227Z" fill="white"/>
<path fill-rule="evenodd" clip-rule="evenodd" d="M71.6166 52.6991V35.3291C71.5982 34.7213 71.0824 34.2423 70.4746 34.2608C64.5434 34.6107 59.1648 35.1449 54.5598 35.7896C54.1361 35.8449 53.7677 36.158 53.6388 36.5633C53.6388 36.5633 53.6204 36.6738 53.6204 36.7106V36.7474C53.5835 36.858 53.5651 37.0053 53.5467 37.1527C52.9757 41.0024 52.3862 47.081 52.0731 52.5885C52.0731 52.5885 51.9994 53.8227 53.2336 53.8227H70.5114C71.1377 53.8227 71.635 53.3253 71.635 52.6991M71.5982 35.237V35.3107V35.2739V35.237Z" fill="white"/>
<path fill-rule="evenodd" clip-rule="evenodd" d="M107.37 85.1737C107.37 85.1737 107.37 86.4078 108.236 87.2736C108.236 87.2736 107.37 86.4078 124.777 103.815C124.777 103.815 125.642 104.68 125.808 103.465C126.656 96.8335 127.319 86.9788 127.429 77.3821C127.429 77.3821 127.448 76.1479 126.214 76.1479H108.346C108.346 76.1479 107.352 76.148 107.352 77.1426V85.1737H107.37Z" fill="white"/>
<path fill-rule="evenodd" clip-rule="evenodd" d="M127.484 70.6032C127.484 66.3666 127.392 62.3142 127.263 59.5144C127.263 59.5144 127.208 58.2803 125.974 58.2803H108.586C108.586 58.2803 107.352 58.2803 107.352 59.5144V70.4742C107.352 70.4742 107.352 71.7084 108.586 71.7084H126.361C126.969 71.7084 127.466 71.211 127.466 70.6032" fill="white"/>
<path fill-rule="evenodd" clip-rule="evenodd" d="M121.626 107.001C109.635 95.0097 105.896 91.2705 104.735 90.11C104.367 89.7601 103.943 89.5574 103.575 89.5759H95.1755C95.1755 89.5759 93.9414 89.5759 93.9414 90.81V108.438C93.9414 108.438 93.9414 109.672 95.1755 109.654C104.772 109.525 114.627 108.88 121.277 108.033C121.277 108.033 122.492 107.885 121.626 107.001Z" fill="white"/>
<path fill-rule="evenodd" clip-rule="evenodd" d="M205.032 98.5835C203.374 95.8942 201.569 93.2049 199.579 90.4972C197.59 87.7894 195.509 85.1922 193.354 82.6871C191.18 80.2004 188.988 77.8427 186.741 75.6507C184.494 73.4588 182.283 71.5431 180.128 69.8853C182.081 67.9881 184.088 65.9619 186.115 63.8436C188.141 61.7253 190.185 59.607 192.193 57.4703C194.201 55.3336 196.153 53.1969 198.069 51.0786C199.985 48.9603 201.771 46.9341 203.485 44.9632H191.806C190.462 46.4552 188.97 48.1314 187.312 49.9918C185.654 51.8522 183.923 53.7679 182.099 55.7573C180.275 57.7282 178.433 59.6991 176.573 61.6332C174.713 63.5673 172.944 65.3908 171.231 67.0855V44.9632H161.469V98.5835H171.231V74.5271C173.239 75.9086 175.284 77.5664 177.347 79.4821C179.41 81.3793 181.399 83.4055 183.333 85.5238C185.267 87.6421 187.109 89.8156 188.878 92.0997C190.627 94.3653 192.175 96.5204 193.519 98.6019H205.05L205.032 98.5835ZM233.048 58.6492C232.588 58.5018 231.962 58.336 231.188 58.1518C230.414 57.9676 229.604 57.8203 228.793 57.6729C227.965 57.544 227.154 57.4519 226.307 57.3598C225.496 57.2861 224.759 57.2493 224.152 57.2493C220.854 57.2493 217.852 57.544 215.144 58.1334C212.437 58.7229 210.189 59.3676 208.384 60.0307V98.5651H217.741V66.1461C218.202 65.9987 219.012 65.8145 220.173 65.6119C221.333 65.4093 222.42 65.2988 223.47 65.2988C225.275 65.2988 226.859 65.4461 228.222 65.7224C229.585 65.9987 230.654 66.275 231.446 66.5329L233.067 58.6308L233.048 58.6492ZM245.629 90.7182C244.248 89.8709 243.548 88.342 243.548 86.1132C243.548 84.9712 243.806 84.0318 244.321 83.295C244.837 82.5398 245.519 81.9687 246.384 81.5451C247.232 81.1214 248.19 80.8451 249.239 80.6978C250.308 80.532 251.339 80.4583 252.371 80.4583C253.55 80.4583 254.637 80.532 255.631 80.6978C256.607 80.8451 257.363 81.0109 257.878 81.1583V91.5287C256.386 91.8418 254.194 91.9892 251.302 91.9892C248.926 91.9892 247.048 91.5655 245.648 90.7182M243.216 57.7282C240.951 58.1334 239.219 58.5571 238.04 58.9623L239.201 66.5513C240.324 66.1461 241.798 65.7777 243.603 65.4645C245.408 65.1514 247.397 65.004 249.553 65.004C251.155 65.004 252.481 65.2067 253.531 65.6303C254.6 66.0356 255.447 66.625 256.092 67.3802C256.736 68.1354 257.178 69.0011 257.436 69.9774C257.694 70.9536 257.823 71.9852 257.823 73.0719V74.6192C256.534 74.3061 255.318 74.085 254.194 73.9561C253.052 73.8272 251.966 73.7719 250.953 73.7719C248.724 73.7719 246.605 73.9929 244.561 74.435C242.516 74.8771 240.729 75.5955 239.182 76.5901C237.635 77.6032 236.419 78.911 235.517 80.4952C234.614 82.0977 234.154 84.0502 234.154 86.3711C234.154 88.692 234.559 90.8287 235.351 92.4865C236.143 94.1443 237.248 95.4705 238.685 96.502C240.103 97.5335 241.816 98.2888 243.824 98.7493C245.832 99.2097 248.061 99.4492 250.474 99.4492C254.139 99.4492 257.418 99.2282 260.347 98.7861C263.257 98.344 265.431 97.9756 266.886 97.6625V73.1272C266.886 70.751 266.609 68.5775 266.075 66.5881C265.541 64.5988 264.638 62.9042 263.368 61.5227C262.115 60.1228 260.42 59.0544 258.302 58.2624C256.184 57.4887 253.587 57.1019 250.492 57.1019C247.913 57.1019 245.5 57.3045 243.216 57.7282ZM286.263 38.5347L276.906 40.0819V98.5835H286.263V80.0162C287.663 81.0478 289.082 82.3003 290.518 83.7739C291.955 85.2475 293.392 86.8132 294.773 88.4525C296.173 90.1103 297.481 91.805 298.678 93.5548C299.894 95.3047 300.962 96.9809 301.883 98.5835H312.714C311.793 96.8336 310.633 94.9179 309.251 92.8549C307.852 90.7919 306.36 88.7288 304.775 86.6658C303.191 84.6028 301.534 82.6503 299.839 80.8267C298.144 78.9847 296.523 77.4375 294.976 76.1481C297.85 73.2009 300.723 70.1984 303.578 67.1039C306.433 64.0094 309.159 61.0253 311.72 58.1334H300.668C299.839 59.1097 298.844 60.2701 297.684 61.5779C296.523 62.9042 295.289 64.2672 294 65.6856C292.71 67.1039 291.403 68.5222 290.058 69.9406C288.713 71.3589 287.461 72.6851 286.263 73.9193V38.5715V38.5347ZM351.23 69.5906C350.272 66.9934 348.946 64.7646 347.252 62.9042C345.557 61.0438 343.494 59.6254 341.099 58.6123C338.705 57.5992 336.089 57.1019 333.234 57.1019C330.397 57.1019 327.8 57.5992 325.424 58.6123C323.048 59.6254 321.003 61.0438 319.272 62.9042C317.54 64.7646 316.196 66.9934 315.256 69.5906C314.298 72.2062 313.82 75.0981 313.82 78.3032C313.82 81.5082 314.298 84.4002 315.256 87.0526C316.214 89.6683 317.54 91.9155 319.235 93.7759C320.948 95.6363 322.974 97.073 325.35 98.1046C327.727 99.1361 330.342 99.6518 333.234 99.6518C336.126 99.6518 338.76 99.1361 341.173 98.1046C343.568 97.073 345.612 95.6363 347.325 93.7759C349.02 91.9155 350.346 89.6683 351.267 87.0526C352.188 84.4186 352.649 81.5082 352.649 78.3032C352.649 75.0981 352.17 72.2062 351.212 69.5906M340.473 87.9736C338.742 90.3314 336.329 91.5287 333.234 91.5287C330.14 91.5287 327.727 90.3314 325.995 87.9736C324.264 85.5975 323.398 82.374 323.398 78.3032C323.398 74.2324 324.264 71.101 325.995 68.7433C327.727 66.4039 330.14 65.2251 333.234 65.2251C336.329 65.2251 338.742 66.4039 340.473 68.7433C342.205 71.0826 343.07 74.2692 343.07 78.3032C343.07 82.3371 342.205 85.5975 340.473 87.9736ZM337.415 36.0664L326.05 49.605L330.692 53.7863L343.31 41.5555L337.434 36.0664H337.415ZM389.691 86.3895C391.109 90.6998 392.491 94.7521 393.817 98.5835H401.424C402.511 96.2073 403.616 93.4996 404.758 90.4603C405.901 87.4026 407.024 84.1607 408.166 80.7162C409.308 77.2533 410.45 73.6245 411.574 69.8116C412.716 65.9987 413.821 62.0937 414.908 58.1334H405.237C404.777 60.307 404.224 62.6279 403.598 65.133C402.972 67.6381 402.309 70.1984 401.609 72.7956C400.909 75.3929 400.19 77.9348 399.472 80.4215C398.754 82.9082 398.035 85.1738 397.372 87.2368C396.599 84.8607 395.843 82.4108 395.106 79.8873C394.37 77.3638 393.67 74.8218 393.025 72.2983C392.38 69.7748 391.773 67.3065 391.201 64.9119C390.63 62.5173 390.115 60.2701 389.654 58.1518H382.452C381.992 60.2701 381.457 62.5173 380.868 64.9119C380.279 67.3065 379.634 69.7748 378.971 72.2983C378.308 74.8218 377.589 77.3638 376.834 79.8873C376.079 82.4108 375.324 84.8607 374.531 87.2368C373.813 85.1738 373.076 82.9082 372.358 80.4215C371.64 77.9532 370.94 75.4113 370.258 72.7956C369.577 70.18 368.95 67.6381 368.324 65.133C367.698 62.6279 367.164 60.307 366.685 58.1334H356.775C357.862 62.1121 358.967 65.9987 360.109 69.8116C361.251 73.6245 362.374 77.2717 363.516 80.7162C364.658 84.1607 365.8 87.421 366.924 90.4603C368.066 93.4996 369.153 96.2073 370.184 98.5835H377.865C379.21 94.7521 380.555 90.6998 381.918 86.3895C383.281 82.0793 384.552 77.6585 385.749 73.1272C386.928 77.6585 388.236 82.0793 389.654 86.3895" fill="white"/>
</svg>
