<svg width="364" height="77" viewBox="0 0 364 77" fill="none" xmlns="http://www.w3.org/2000/svg">
<path fill-rule="evenodd" clip-rule="evenodd" d="M55.868 19.0091V1.63918C55.8865 1.03132 56.4022 0.552407 56.9916 0.570827C62.9228 0.920804 68.3015 1.45498 72.9064 2.09967C73.3301 2.15493 73.6985 2.46807 73.8274 2.87331C73.8274 2.87331 73.8458 2.98383 73.8642 3.02067V3.05751C73.9011 3.16803 73.9011 3.31539 73.9379 3.46275C74.5089 7.3125 75.0984 13.3911 75.4115 18.8986C75.4115 18.8986 75.4852 20.1327 74.2511 20.1327H56.9732C56.3469 20.1327 55.8496 19.6354 55.8496 19.0091" fill="black"/>
<path fill-rule="evenodd" clip-rule="evenodd" d="M20.1155 74.3612V55.8677V56.9913C20.1155 56.3834 19.6182 55.8677 18.9919 55.8677H1.71403C0.479902 55.8677 0.553572 57.1018 0.553572 57.1018C0.86671 62.6093 1.45615 68.6879 2.02717 72.5377C2.04559 72.7034 2.06401 72.8324 2.08243 72.9613V72.9982C2.08243 72.9982 2.10085 73.0903 2.11927 73.1271C2.26663 73.5508 2.61661 73.8455 3.02184 73.9007C7.64523 74.5639 13.0423 75.0796 18.9735 75.448C19.5813 75.448 20.0786 74.9691 20.0971 74.3612" fill="black"/>
<path fill-rule="evenodd" clip-rule="evenodd" d="M40.2285 18.8804C40.2285 18.8804 40.2285 20.1145 41.4627 20.1145H50.1753C50.1753 20.1145 51.4094 20.1145 51.4094 18.8804V1.49201C51.4094 1.49201 51.4094 0.257879 50.1753 0.20262C47.8175 0.11052 44.0783 0.0184199 41.4627 0C41.4627 0 40.2285 -3.29373e-07 40.2285 1.21571V18.862V18.8804Z" fill="black"/>
<path fill-rule="evenodd" clip-rule="evenodd" d="M37.9828 74.7661V56.2541V57.0093C37.9828 56.4015 37.4854 55.8857 36.8592 55.8857H37.596H25.7888C25.7888 55.8857 24.5547 55.8857 24.5547 57.1199V74.5082C24.5547 74.5082 24.5547 75.7424 25.7888 75.7976C28.8281 75.9266 33.3225 76.0187 36.7302 76.0187C36.7302 76.0187 37.9644 76.0187 37.9644 74.7845" fill="black"/>
<path fill-rule="evenodd" clip-rule="evenodd" d="M24.5723 18.8802C24.5723 18.8802 24.5723 20.1144 25.8064 20.1144H34.519C34.519 20.1144 35.7531 20.1144 35.7531 18.8802V1.23398C35.7531 1.23398 35.7531 -0.000149313 34.519 0.0182706C31.9034 0.0182706 28.1642 0.128784 25.8064 0.220883C25.8064 0.220883 24.5723 0.276144 24.5723 1.51028V18.8986V18.8802Z" fill="black"/>
<path fill-rule="evenodd" clip-rule="evenodd" d="M15.3624 51.4094H18.8622C18.8622 51.4094 20.0963 51.4094 20.0963 50.1752V41.4626C20.0963 41.4626 20.0963 40.2285 18.8622 40.2285H1.21591C1.21591 40.2285 -0.0182157 40.2285 0.000204161 41.4626C0.000204161 44.0967 0.110725 47.8175 0.202824 50.1752C0.202824 50.1752 0.258078 51.4094 1.49221 51.4094H15.3624Z" fill="black"/>
<path fill-rule="evenodd" clip-rule="evenodd" d="M0 34.5371C0 34.5371 -7.356e-06 35.7712 1.2157 35.7712H18.862C18.862 35.7712 20.0961 35.7712 20.0961 34.5371V25.8245C20.0961 25.8245 20.0961 24.5903 18.862 24.5903H1.47358C1.47358 24.5903 0.23946 24.5903 0.20262 25.8245C0.0921005 28.1822 0.0184199 31.9214 0 34.5371Z" fill="black"/>
<path fill-rule="evenodd" clip-rule="evenodd" d="M20.1146 19.0091V1.63918C20.0962 1.03132 19.5805 0.552407 18.9726 0.570827C13.0414 0.920804 7.6628 1.45498 3.05783 2.09967C2.63417 2.15493 2.26578 2.46807 2.13684 2.87331C2.13684 2.87331 2.11843 2.98383 2.11843 3.02067V3.05751C2.08159 3.16803 2.06317 3.31539 2.04475 3.46275C1.47373 7.3125 0.884289 13.3911 0.571151 18.8986C0.571151 18.8986 0.497466 20.1327 1.7316 20.1327H19.0095C19.6357 20.1327 20.1331 19.6354 20.1331 19.0091M20.0962 1.54708V1.62076V1.58392V1.54708Z" fill="black"/>
<path fill-rule="evenodd" clip-rule="evenodd" d="M55.868 51.4837C55.868 51.4837 55.868 52.7179 56.7338 53.5836C56.7338 53.5836 55.868 52.7179 73.2748 70.1247C73.2748 70.1247 74.1405 70.9904 74.3063 69.7747C75.1536 63.1435 75.8168 53.2889 75.9273 43.6921C75.9273 43.6921 75.9457 42.458 74.7116 42.458H56.8443C56.8443 42.458 55.8496 42.458 55.8496 43.4527V51.4837H55.868Z" fill="black"/>
<path fill-rule="evenodd" clip-rule="evenodd" d="M75.9825 36.9132C75.9825 32.6767 75.8904 28.6243 75.7615 25.8245C75.7615 25.8245 75.7062 24.5903 74.4721 24.5903H57.0837C57.0837 24.5903 55.8496 24.5903 55.8496 25.8245V36.7843C55.8496 36.7843 55.8496 38.0184 57.0837 38.0184H74.8589C75.4668 38.0184 75.9641 37.5211 75.9641 36.9132" fill="black"/>
<path fill-rule="evenodd" clip-rule="evenodd" d="M70.1245 73.3111C58.1332 61.3198 54.394 57.5805 53.2335 56.4201C52.8651 56.0701 52.4414 55.8675 52.073 55.8859H43.6736C43.6736 55.8859 42.4395 55.8859 42.4395 57.1201V74.7479C42.4395 74.7479 42.4394 75.982 43.6736 75.9636C53.2703 75.8346 63.125 75.1899 69.7745 74.3426C69.7745 74.3426 70.9903 74.1953 70.1245 73.3111Z" fill="black"/>
<path fill-rule="evenodd" clip-rule="evenodd" d="M153.53 64.8935C151.872 62.2042 150.067 59.5149 148.078 56.8072C146.088 54.0995 144.007 51.5023 141.852 48.9972C139.678 46.5105 137.486 44.1527 135.239 41.9608C132.992 39.7688 130.781 37.8532 128.626 36.1954C130.579 34.2981 132.586 32.2719 134.613 30.1536C136.639 28.0354 138.683 25.9171 140.691 23.7804C142.699 21.6437 144.651 19.507 146.567 17.3887C148.483 15.2704 150.27 13.2442 151.983 11.2733H140.304C138.96 12.7653 137.468 14.4415 135.81 16.3019C134.152 18.1623 132.421 20.078 130.597 22.0673C128.774 24.0382 126.932 26.0092 125.071 27.9433C123.211 29.8773 121.442 31.7009 119.729 33.3955V11.2733H109.967V64.8935H119.729V40.8372C121.737 42.2187 123.782 43.8765 125.845 45.7921C127.908 47.6894 129.897 49.7155 131.831 51.8338C133.765 53.9521 135.607 56.1257 137.376 58.4097C139.125 60.6754 140.673 62.8305 142.017 64.9119H153.548L153.53 64.8935ZM181.546 24.9592C181.086 24.8119 180.46 24.6461 179.686 24.4619C178.912 24.2777 178.102 24.1303 177.291 23.983C176.463 23.854 175.652 23.7619 174.805 23.6698C173.994 23.5962 173.258 23.5593 172.65 23.5593C169.352 23.5593 166.35 23.854 163.642 24.4435C160.935 25.0329 158.687 25.6776 156.882 26.3407V64.8751H166.24V32.4561C166.7 32.3088 167.511 32.1246 168.671 31.922C169.831 31.7193 170.918 31.6088 171.968 31.6088C173.773 31.6088 175.357 31.7562 176.72 32.0325C178.084 32.3088 179.152 32.5851 179.944 32.8429L181.565 24.9408L181.546 24.9592ZM194.127 57.0282C192.746 56.1809 192.046 54.6521 192.046 52.4233C192.046 51.2812 192.304 50.3418 192.819 49.605C193.335 48.8498 194.017 48.2788 194.882 47.8551C195.73 47.4315 196.688 47.1552 197.738 47.0078C198.806 46.8421 199.837 46.7684 200.869 46.7684C202.048 46.7684 203.135 46.8421 204.129 47.0078C205.105 47.1552 205.861 47.321 206.376 47.4683V57.8387C204.884 58.1519 202.692 58.2992 199.801 58.2992C197.424 58.2992 195.546 57.8756 194.146 57.0282M191.714 24.0382C189.449 24.4435 187.717 24.8671 186.538 25.2724L187.699 32.8614C188.822 32.4561 190.296 32.0877 192.101 31.7746C193.906 31.4615 195.896 31.3141 198.051 31.3141C199.653 31.3141 200.979 31.5167 202.029 31.9404C203.098 32.3456 203.945 32.935 204.59 33.6903C205.234 34.4455 205.676 35.3112 205.934 36.2875C206.192 37.2637 206.321 38.2952 206.321 39.382V40.9293C205.032 40.6161 203.816 40.3951 202.692 40.2662C201.55 40.1372 200.464 40.082 199.451 40.082C197.222 40.082 195.103 40.303 193.059 40.7451C191.014 41.1872 189.228 41.9055 187.68 42.9002C186.133 43.9133 184.917 45.2211 184.015 46.8052C183.112 48.4077 182.652 50.3602 182.652 52.6811C182.652 55.0021 183.057 57.1388 183.849 58.7965C184.641 60.4543 185.746 61.7806 187.183 62.8121C188.601 63.8436 190.314 64.5988 192.322 65.0593C194.33 65.5198 196.559 65.7593 198.972 65.7593C202.637 65.7593 205.916 65.5382 208.845 65.0962C211.755 64.6541 213.929 64.2857 215.384 63.9725V39.4373C215.384 37.0611 215.107 34.8875 214.573 32.8982C214.039 30.9089 213.137 29.2142 211.866 27.8327C210.613 26.4328 208.918 25.3645 206.8 24.5724C204.682 23.7988 202.085 23.412 198.99 23.412C196.411 23.412 193.998 23.6146 191.714 24.0382ZM234.761 4.84473L225.404 6.392V64.8935H234.761V46.3263C236.161 47.3578 237.58 48.6104 239.016 50.084C240.453 51.5575 241.89 53.1232 243.271 54.7626C244.671 56.4204 245.979 58.115 247.176 59.8649C248.392 61.6148 249.461 63.291 250.382 64.8935H261.212C260.291 63.1436 259.131 61.228 257.749 59.165C256.35 57.1019 254.858 55.0389 253.273 52.9759C251.689 50.9128 250.032 48.9603 248.337 47.1368C246.642 45.2948 245.021 43.7475 243.474 42.4581C246.348 39.5109 249.221 36.5085 252.076 33.414C254.931 30.3194 257.657 27.3354 260.218 24.4435H249.166C248.337 25.4197 247.342 26.5802 246.182 27.888C245.021 29.2142 243.787 30.5773 242.498 31.9956C241.208 33.414 239.901 34.8323 238.556 36.2506C237.211 37.669 235.959 38.9952 234.761 40.2293V4.88157V4.84473ZM299.728 35.9006C298.771 33.3034 297.444 31.0746 295.75 29.2142C294.055 27.3538 291.992 25.9355 289.597 24.9224C287.203 23.9093 284.587 23.412 281.732 23.412C278.896 23.412 276.298 23.9093 273.922 24.9224C271.546 25.9355 269.501 27.3538 267.77 29.2142C266.038 31.0746 264.694 33.3034 263.754 35.9006C262.797 38.5163 262.318 41.4082 262.318 44.6132C262.318 47.8183 262.797 50.7102 263.754 53.3627C264.712 55.9783 266.038 58.2255 267.733 60.0859C269.446 61.9464 271.472 63.3831 273.848 64.4146C276.225 65.4461 278.84 65.9619 281.732 65.9619C284.624 65.9619 287.258 65.4461 289.671 64.4146C292.066 63.3831 294.11 61.9464 295.823 60.0859C297.518 58.2255 298.844 55.9783 299.765 53.3627C300.686 50.7286 301.147 47.8183 301.147 44.6132C301.147 41.4082 300.668 38.5163 299.71 35.9006M288.971 54.2837C287.24 56.6414 284.827 57.8387 281.732 57.8387C278.638 57.8387 276.225 56.6414 274.493 54.2837C272.762 51.9075 271.896 48.684 271.896 44.6132C271.896 40.5425 272.762 37.4111 274.493 35.0533C276.225 32.714 278.638 31.5351 281.732 31.5351C284.827 31.5351 287.24 32.714 288.971 35.0533C290.703 37.3926 291.568 40.5793 291.568 44.6132C291.568 48.6472 290.703 51.9075 288.971 54.2837ZM285.913 2.37646L274.548 15.9151L279.19 20.0964L291.808 7.86559L285.932 2.37646H285.913ZM338.189 52.6996C339.607 57.0098 340.989 61.0622 342.315 64.8935H349.923C351.009 62.5174 352.114 59.8096 353.257 56.7704C354.399 53.7127 355.522 50.4708 356.664 47.0262C357.806 43.5633 358.948 39.9346 360.072 36.1217C361.214 32.3088 362.319 28.4038 363.406 24.4435H353.735C353.275 26.617 352.722 28.9379 352.096 31.443C351.47 33.9481 350.807 36.5085 350.107 39.1057C349.407 41.7029 348.688 44.2449 347.97 46.7315C347.252 49.2182 346.533 51.4839 345.87 53.5469C345.097 51.1707 344.341 48.7209 343.605 46.1974C342.868 43.6738 342.168 41.1319 341.523 38.6084C340.878 36.0848 340.271 33.6166 339.7 31.222C339.129 28.8274 338.613 26.5802 338.152 24.4619H330.95C330.49 26.5802 329.955 28.8274 329.366 31.222C328.777 33.6166 328.132 36.0848 327.469 38.6084C326.806 41.1319 326.087 43.6738 325.332 46.1974C324.577 48.7209 323.822 51.1707 323.03 53.5469C322.311 51.4839 321.574 49.2182 320.856 46.7315C320.138 44.2633 319.438 41.7213 318.756 39.1057C318.075 36.4901 317.448 33.9481 316.822 31.443C316.196 28.9379 315.662 26.617 315.183 24.4435H305.273C306.36 28.4222 307.465 32.3088 308.607 36.1217C309.749 39.9346 310.872 43.5817 312.014 47.0262C313.156 50.4708 314.299 53.7311 315.422 56.7704C316.564 59.8096 317.651 62.5174 318.682 64.8935H326.364C327.708 61.0622 329.053 57.0098 330.416 52.6996C331.779 48.3893 333.05 43.9686 334.247 39.4373C335.426 43.9686 336.734 48.3893 338.152 52.6996" fill="black"/>
</svg>
